<mxfile host="Electron" agent="Mozilla/5.0 (Windows NT 10.0; Win64; x64) AppleWebKit/537.36 (KHTML, like Gecko) draw.io/26.0.4 Chrome/128.0.6613.186 Electron/32.2.5 Safari/537.36" version="26.0.4">
  <diagram name="Page-1" id="z_t7DW9Uk_a8_lbUAwnk">
    <mxGraphModel dx="1420" dy="942" grid="1" gridSize="10" guides="1" tooltips="1" connect="1" arrows="1" fold="1" page="1" pageScale="1" pageWidth="850" pageHeight="1100" math="0" shadow="0">
      <root>
        <mxCell id="0" />
        <mxCell id="1" parent="0" />
        <mxCell id="4Xwy-DT4BqPEZJXCdUJZ-1" value="Untracked" style="rounded=0;whiteSpace=wrap;html=1;fontFamily=Lucida Console;" vertex="1" parent="1">
          <mxGeometry x="40" y="40" width="120" height="60" as="geometry" />
        </mxCell>
        <mxCell id="4Xwy-DT4BqPEZJXCdUJZ-2" value="Unmodified" style="rounded=0;whiteSpace=wrap;html=1;fontFamily=Lucida Console;" vertex="1" parent="1">
          <mxGeometry x="240" y="40" width="120" height="60" as="geometry" />
        </mxCell>
        <mxCell id="4Xwy-DT4BqPEZJXCdUJZ-3" value="Modified" style="rounded=0;whiteSpace=wrap;html=1;fontFamily=Lucida Console;" vertex="1" parent="1">
          <mxGeometry x="440" y="40" width="120" height="60" as="geometry" />
        </mxCell>
        <mxCell id="4Xwy-DT4BqPEZJXCdUJZ-4" value="Staged" style="rounded=0;whiteSpace=wrap;html=1;fontFamily=Lucida Console;" vertex="1" parent="1">
          <mxGeometry x="640" y="40" width="120" height="60" as="geometry" />
        </mxCell>
        <mxCell id="4Xwy-DT4BqPEZJXCdUJZ-5" value="" style="endArrow=none;html=1;rounded=0;dashed=1;fontFamily=Lucida Console;" edge="1" parent="1">
          <mxGeometry width="50" height="50" relative="1" as="geometry">
            <mxPoint x="100" y="320" as="sourcePoint" />
            <mxPoint x="99.5" y="100" as="targetPoint" />
          </mxGeometry>
        </mxCell>
        <mxCell id="4Xwy-DT4BqPEZJXCdUJZ-6" value="" style="endArrow=none;html=1;rounded=0;startArrow=none;startFill=0;dashed=1;fontFamily=Lucida Console;" edge="1" parent="1">
          <mxGeometry width="50" height="50" relative="1" as="geometry">
            <mxPoint x="300" y="320" as="sourcePoint" />
            <mxPoint x="299.5" y="100" as="targetPoint" />
          </mxGeometry>
        </mxCell>
        <mxCell id="4Xwy-DT4BqPEZJXCdUJZ-7" value="" style="endArrow=none;html=1;rounded=0;dashed=1;fontFamily=Lucida Console;" edge="1" parent="1">
          <mxGeometry width="50" height="50" relative="1" as="geometry">
            <mxPoint x="500" y="320" as="sourcePoint" />
            <mxPoint x="499.5" y="100" as="targetPoint" />
          </mxGeometry>
        </mxCell>
        <mxCell id="4Xwy-DT4BqPEZJXCdUJZ-8" value="" style="endArrow=none;html=1;rounded=0;dashed=1;fontFamily=Lucida Console;" edge="1" parent="1">
          <mxGeometry width="50" height="50" relative="1" as="geometry">
            <mxPoint x="700" y="320" as="sourcePoint" />
            <mxPoint x="699.5" y="100" as="targetPoint" />
          </mxGeometry>
        </mxCell>
        <mxCell id="4Xwy-DT4BqPEZJXCdUJZ-9" value="" style="endArrow=classic;html=1;rounded=0;strokeWidth=2;fontFamily=Lucida Console;" edge="1" parent="1">
          <mxGeometry width="50" height="50" relative="1" as="geometry">
            <mxPoint x="100" y="140" as="sourcePoint" />
            <mxPoint x="700" y="140" as="targetPoint" />
          </mxGeometry>
        </mxCell>
        <mxCell id="4Xwy-DT4BqPEZJXCdUJZ-10" value="Add the file" style="edgeLabel;html=1;align=center;verticalAlign=bottom;resizable=0;points=[];rotation=0;fontFamily=Lucida Console;" vertex="1" connectable="0" parent="4Xwy-DT4BqPEZJXCdUJZ-9">
          <mxGeometry x="-0.54" relative="1" as="geometry">
            <mxPoint x="-40" as="offset" />
          </mxGeometry>
        </mxCell>
        <mxCell id="4Xwy-DT4BqPEZJXCdUJZ-11" value="" style="endArrow=classic;html=1;rounded=0;strokeWidth=2;fontFamily=Lucida Console;" edge="1" parent="1">
          <mxGeometry width="50" height="50" relative="1" as="geometry">
            <mxPoint x="300" y="180" as="sourcePoint" />
            <mxPoint x="500" y="180" as="targetPoint" />
          </mxGeometry>
        </mxCell>
        <mxCell id="4Xwy-DT4BqPEZJXCdUJZ-12" value="Edit the file" style="edgeLabel;html=1;align=center;verticalAlign=bottom;resizable=0;points=[];rotation=0;fontSize=12;fontFamily=Lucida Console;" vertex="1" connectable="0" parent="4Xwy-DT4BqPEZJXCdUJZ-11">
          <mxGeometry x="-0.5" relative="1" as="geometry">
            <mxPoint x="50" as="offset" />
          </mxGeometry>
        </mxCell>
        <mxCell id="4Xwy-DT4BqPEZJXCdUJZ-16" value="" style="endArrow=classic;html=1;rounded=0;strokeWidth=2;fontFamily=Lucida Console;" edge="1" parent="1">
          <mxGeometry width="50" height="50" relative="1" as="geometry">
            <mxPoint x="500" y="220" as="sourcePoint" />
            <mxPoint x="700" y="220" as="targetPoint" />
          </mxGeometry>
        </mxCell>
        <mxCell id="4Xwy-DT4BqPEZJXCdUJZ-17" value="Stage the file" style="edgeLabel;html=1;align=center;verticalAlign=bottom;resizable=0;points=[];rotation=0;fontSize=12;fontFamily=Lucida Console;" vertex="1" connectable="0" parent="4Xwy-DT4BqPEZJXCdUJZ-16">
          <mxGeometry x="-0.5" relative="1" as="geometry">
            <mxPoint x="50" as="offset" />
          </mxGeometry>
        </mxCell>
        <mxCell id="4Xwy-DT4BqPEZJXCdUJZ-20" value="" style="endArrow=classic;html=1;rounded=0;verticalAlign=bottom;strokeWidth=2;fontFamily=Lucida Console;" edge="1" parent="1">
          <mxGeometry width="50" height="50" relative="1" as="geometry">
            <mxPoint x="300" y="260" as="sourcePoint" />
            <mxPoint x="100" y="260" as="targetPoint" />
          </mxGeometry>
        </mxCell>
        <mxCell id="4Xwy-DT4BqPEZJXCdUJZ-21" value="Remove the file" style="edgeLabel;html=1;align=center;verticalAlign=bottom;resizable=0;points=[];rotation=0;fontSize=12;fontFamily=Lucida Console;" vertex="1" connectable="0" parent="4Xwy-DT4BqPEZJXCdUJZ-20">
          <mxGeometry x="0.5" relative="1" as="geometry">
            <mxPoint x="50" as="offset" />
          </mxGeometry>
        </mxCell>
        <mxCell id="4Xwy-DT4BqPEZJXCdUJZ-22" value="" style="endArrow=classic;html=1;rounded=0;verticalAlign=bottom;strokeWidth=2;fontFamily=Lucida Console;" edge="1" parent="1">
          <mxGeometry width="50" height="50" relative="1" as="geometry">
            <mxPoint x="700" y="300" as="sourcePoint" />
            <mxPoint x="300" y="300" as="targetPoint" />
          </mxGeometry>
        </mxCell>
        <mxCell id="4Xwy-DT4BqPEZJXCdUJZ-23" value="Commit" style="edgeLabel;html=1;align=center;verticalAlign=bottom;resizable=0;points=[];rotation=0;fontSize=12;fontFamily=Lucida Console;" vertex="1" connectable="0" parent="4Xwy-DT4BqPEZJXCdUJZ-22">
          <mxGeometry x="0.5" relative="1" as="geometry">
            <mxPoint x="200" as="offset" />
          </mxGeometry>
        </mxCell>
      </root>
    </mxGraphModel>
  </diagram>
</mxfile>
